<svg xmlns="http://www.w3.org/2000/svg" width="1100" height="750" viewBox="0 0 1100 750">
 <rect width="1100" height="750" fill="#eee8d9"/>
 <style>text{font-family:'Microsoft YaHei',sans-serif;fill:#383b35;font-size:16px}.heading{font-size:25px;font-weight:bold}.small{font-size:13px}.lane{stroke:#82775e;stroke-width:5;fill:none}.wall{stroke:#544f43;stroke-width:9;fill:none}.tunnel{stroke:#946d4c;stroke-width:4;stroke-dasharray:8 5;fill:none}.mouth{fill:#eee8d9;stroke:#946d4c;stroke-width:3}.gate{fill:#698a90}</style>
 <text x="60" y="43" class="heading">战术拓扑 · 地上三线 / 两处连接口</text>
 <text x="60" y="72">180 × 90 m · 示意图，纵横比例与通道弯折均已简化</text>
 <rect x="100" y="105" width="900" height="100" fill="#d9d1ba"/>
 <rect x="100" y="205" width="900" height="160" fill="#e3dbc7"/>
 <rect x="100" y="365" width="900" height="90" fill="#cacbb5"/>
 <text x="115" y="131">北侧高地 +2.4 m</text><path class="lane" d="M120 164H980"/>
 <text x="115" y="240">中线主街 · 普通地面 0 m / B 晒场 +1.2 m</text><path class="lane" d="M150 287H950"/>
 <text x="115" y="443">南侧低地 −1.2 m</text><path class="lane" d="M120 407H980"/>
 <path class="wall" d="M100 205H430M450 205H1000M100 365H650M670 365H1000"/>
 <path stroke="#698a90" stroke-width="8" d="M440 164V287M660 287V407"/>
 <text x="456" y="188" class="small">唯一北↔中口 · x=−22</text><text x="676" y="350" class="small">唯一中↔南口 · x=22</text>
 <g fill="#777768"><circle cx="340" cy="287" r="18"/><circle cx="550" cy="287" r="18"/><circle cx="760" cy="287" r="18"/></g>
 <g style="fill:#fff;font-weight:bold;text-anchor:middle"><text x="340" y="293">A</text><text x="550" y="293">B</text><text x="760" y="293">C</text></g>
 <text x="115" y="318" class="small">中国出生区</text><text x="904" y="318" class="small">日军出生区</text>
 <g class="mouth"><circle cx="230" cy="164" r="7"/><circle cx="870" cy="164" r="7"/><circle cx="210" cy="287" r="7"/><circle cx="550" cy="322" r="7"/><circle cx="890" cy="287" r="7"/><circle cx="310" cy="407" r="7"/><circle cx="650" cy="407" r="7"/><circle cx="790" cy="407" r="7"/></g>
 <text x="60" y="495" class="heading">地下支路 · −4 m · 8 个出口</text>
 <text x="60" y="523">下图虚线全部位于地下；圆圈对应地面出口，不增加地面连接口。</text>
 <path class="tunnel" d="M210 625H285V613H370V637H455V613H540V637H630V613H720V637H805V625H890"/>
 <path class="tunnel" d="M210 625V565M550 637V575M890 625V565M230 625V591H245V550H230V541M870 625V591H855V550H870V541M310 613V690M650 613V650H640V680H650V690M790 637V690"/>
 <g class="mouth"><circle cx="210" cy="565" r="7"/><circle cx="550" cy="575" r="7"/><circle cx="890" cy="565" r="7"/><circle cx="230" cy="541" r="7"/><circle cx="870" cy="541" r="7"/><circle cx="310" cy="690" r="7"/><circle cx="650" cy="690" r="7"/><circle cx="790" cy="690" r="7"/></g>
 <text x="110" y="573" class="small">西主街</text><text x="252" y="551" class="small">西高地</text><text x="567" y="581" class="small">B 附近</text><text x="781" y="551" class="small">东高地</text><text x="908" y="573" class="small">C 后方</text>
 <text x="280" y="718" class="small">西低地</text><text x="620" y="718" class="small">中低地</text><text x="765" y="718" class="small">东低地</text><text x="668" y="672" class="small">地下小室</text>
 <text x="60" y="747" class="small">净宽约 2.4 m，挡墙交错，出口用坡道连接；玩家与 AI 共用实体碰撞和高度采样。</text>
</svg>
