<svg xmlns="http://www.w3.org/2000/svg" width="256" height="256" viewBox="0 0 256 256"><rect width="256" height="256" fill="#65503a"/><ellipse cx="203.3" cy="188.9" rx="1.0" ry="0.6" fill="#3d3025" opacity="0.20"/><ellipse cx="108.0" cy="231.8" rx="0.6" ry="0.4" fill="#3d3025" opacity="0.26"/><ellipse cx="215.8" cy="157.2" rx="2.6" ry="1.6" fill="#3d3025" opacity="0.12"/><ellipse cx="228.4" cy="151.6" rx="2.2" ry="1.3" fill="#3d3025" opacity="0.11"/><ellipse cx="58.8" cy="65.1" rx="2.2" ry="1.3" fill="#3d3025" opacity="0.13"/><ellipse cx="231.8" cy="92.4" rx="1.3" ry="0.8" fill="#3d3025" opacity="0.20"/><ellipse cx="124.3" cy="130.5" rx="1.8" ry="1.1" fill="#3d3025" opacity="0.09"/><ellipse cx="161.8" cy="7.0" rx="2.9" ry="1.7" fill="#3d3025" opacity="0.22"/><ellipse cx="71.3" cy="23.3" rx="1.7" ry="1.0" fill="#3d3025" opacity="0.19"/><ellipse cx="202.7" cy="41.8" rx="1.2" ry="0.7" fill="#3d3025" opacity="0.13"/><ellipse cx="193.8" cy="15.7" rx="2.0" ry="1.2" fill="#3d3025" opacity="0.17"/><ellipse cx="72.4" cy="62.7" rx="1.2" ry="0.7" fill="#3d3025" opacity="0.18"/><ellipse cx="245.7" cy="37.0" rx="2.0" ry="1.2" fill="#3d3025" opacity="0.14"/><ellipse cx="222.9" cy="157.8" rx="0.7" ry="0.4" fill="#3d3025" opacity="0.11"/><ellipse cx="73.1" cy="215.9" rx="2.2" ry="1.3" fill="#3d3025" opacity="0.13"/><ellipse cx="240.6" cy="68.1" rx="2.6" ry="1.6" fill="#3d3025" opacity="0.15"/><ellipse cx="7.1" cy="94.9" rx="1.6" ry="1.0" fill="#3d3025" opacity="0.11"/><ellipse cx="79.1" cy="105.5" rx="1.9" ry="1.1" fill="#3d3025" opacity="0.09"/><ellipse cx="247.7" cy="101.2" rx="1.8" ry="1.1" fill="#3d3025" opacity="0.15"/><ellipse cx="27.4" cy="231.7" rx="2.9" ry="1.7" fill="#3d3025" opacity="0.18"/><ellipse cx="8.8" cy="152.9" rx="0.8" ry="0.5" fill="#3d3025" opacity="0.09"/><ellipse cx="182.4" cy="112.9" rx="2.0" ry="1.2" fill="#3d3025" opacity="0.18"/><ellipse cx="6.8" cy="9.4" rx="1.6" ry="1.0" fill="#3d3025" opacity="0.13"/><ellipse cx="193.8" cy="149.6" rx="0.7" ry="0.4" fill="#3d3025" opacity="0.18"/><ellipse cx="100.6" cy="86.1" rx="1.2" ry="0.7" fill="#3d3025" opacity="0.24"/><ellipse cx="47.9" cy="155.6" rx="2.5" ry="1.5" fill="#3d3025" opacity="0.14"/><ellipse cx="20.5" cy="173.0" rx="2.7" ry="1.6" fill="#3d3025" opacity="0.15"/><ellipse cx="101.0" cy="36.7" rx="2.1" ry="1.3" fill="#3d3025" opacity="0.24"/><ellipse cx="112.3" cy="153.0" rx="1.7" ry="1.0" fill="#3d3025" opacity="0.16"/><ellipse cx="103.1" cy="164.4" rx="2.7" ry="1.6" fill="#3d3025" opacity="0.20"/><ellipse cx="50.5" cy="160.3" rx="1.0" ry="0.6" fill="#3d3025" opacity="0.12"/><ellipse cx="30.7" cy="167.4" rx="2.3" ry="1.4" fill="#3d3025" opacity="0.10"/><ellipse cx="126.0" cy="179.3" rx="2.4" ry="1.4" fill="#3d3025" opacity="0.21"/><ellipse cx="167.6" cy="233.3" rx="1.7" ry="1.0" fill="#3d3025" opacity="0.17"/><ellipse cx="247.2" cy="106.6" rx="2.4" ry="1.5" fill="#3d3025" opacity="0.21"/><ellipse cx="176.8" cy="59.4" rx="1.4" ry="0.8" fill="#3d3025" opacity="0.11"/><ellipse cx="236.1" cy="21.8" rx="1.3" ry="0.8" fill="#3d3025" opacity="0.17"/><ellipse cx="237.4" cy="59.4" rx="1.8" ry="1.1" fill="#3d3025" opacity="0.24"/><ellipse cx="141.1" cy="154.2" rx="1.0" ry="0.6" fill="#3d3025" opacity="0.20"/><ellipse cx="149.1" cy="217.5" rx="1.0" ry="0.6" fill="#3d3025" opacity="0.22"/><ellipse cx="53.3" cy="32.9" rx="2.8" ry="1.7" fill="#3d3025" opacity="0.16"/><ellipse cx="244.6" cy="175.3" rx="2.5" ry="1.5" fill="#3d3025" opacity="0.12"/><ellipse cx="194.9" cy="149.2" rx="1.1" ry="0.6" fill="#3d3025" opacity="0.26"/><ellipse cx="14.1" cy="37.9" rx="0.8" ry="0.5" fill="#3d3025" opacity="0.20"/><ellipse cx="0.3" cy="243.8" rx="2.2" ry="1.3" fill="#3d3025" opacity="0.16"/><ellipse cx="73.8" cy="108.7" rx="2.2" ry="1.3" fill="#3d3025" opacity="0.22"/><ellipse cx="27.7" cy="104.5" rx="2.2" ry="1.3" fill="#3d3025" opacity="0.25"/><ellipse cx="54.4" cy="63.8" rx="2.5" ry="1.5" fill="#3d3025" opacity="0.26"/><ellipse cx="48.4" cy="61.2" rx="1.3" ry="0.8" fill="#3d3025" opacity="0.08"/><ellipse cx="89.6" cy="126.5" rx="1.7" ry="1.0" fill="#3d3025" opacity="0.19"/><ellipse cx="222.7" cy="152.4" rx="0.7" ry="0.4" fill="#3d3025" opacity="0.17"/><ellipse cx="16.7" cy="145.9" rx="1.2" ry="0.7" fill="#3d3025" opacity="0.18"/><ellipse cx="244.8" cy="11.2" rx="0.6" ry="0.3" fill="#3d3025" opacity="0.17"/><ellipse cx="128.9" cy="163.1" rx="1.1" ry="0.7" fill="#3d3025" opacity="0.13"/><ellipse cx="39.3" cy="240.5" rx="2.4" ry="1.5" fill="#3d3025" opacity="0.22"/><ellipse cx="152.1" cy="162.1" rx="1.3" ry="0.8" fill="#3d3025" opacity="0.11"/><ellipse cx="217.4" cy="154.8" rx="2.4" ry="1.4" fill="#3d3025" opacity="0.17"/><ellipse cx="29.0" cy="28.0" rx="0.7" ry="0.4" fill="#3d3025" opacity="0.26"/><ellipse cx="245.5" cy="83.5" rx="0.8" ry="0.5" fill="#3d3025" opacity="0.11"/><ellipse cx="207.9" cy="225.5" rx="1.1" ry="0.6" fill="#3d3025" opacity="0.24"/><ellipse cx="213.8" cy="40.6" rx="0.8" ry="0.5" fill="#3d3025" opacity="0.26"/><ellipse cx="155.2" cy="125.7" rx="2.3" ry="1.4" fill="#3d3025" opacity="0.22"/><ellipse cx="61.0" cy="139.6" rx="1.6" ry="0.9" fill="#3d3025" opacity="0.20"/><ellipse cx="211.8" cy="124.4" rx="1.3" ry="0.8" fill="#3d3025" opacity="0.16"/><ellipse cx="94.3" cy="192.0" rx="1.8" ry="1.1" fill="#3d3025" opacity="0.25"/><ellipse cx="137.4" cy="128.5" rx="1.8" ry="1.1" fill="#3d3025" opacity="0.08"/><ellipse cx="246.3" cy="26.0" rx="0.6" ry="0.3" fill="#3d3025" opacity="0.14"/><ellipse cx="231.4" cy="42.5" rx="1.7" ry="1.0" fill="#3d3025" opacity="0.17"/><ellipse cx="115.3" cy="12.2" rx="1.0" ry="0.6" fill="#3d3025" opacity="0.14"/><ellipse cx="165.3" cy="207.4" rx="1.3" ry="0.8" fill="#3d3025" opacity="0.21"/><ellipse cx="45.8" cy="7.2" rx="1.7" ry="1.0" fill="#3d3025" opacity="0.17"/><ellipse cx="134.9" cy="254.6" rx="2.3" ry="1.4" fill="#3d3025" opacity="0.24"/><ellipse cx="177.3" cy="39.3" rx="1.2" ry="0.7" fill="#3d3025" opacity="0.18"/><ellipse cx="237.2" cy="216.9" rx="2.0" ry="1.2" fill="#3d3025" opacity="0.21"/><ellipse cx="20.3" cy="179.2" rx="1.4" ry="0.9" fill="#3d3025" opacity="0.09"/><ellipse cx="118.7" cy="54.8" rx="2.4" ry="1.5" fill="#3d3025" opacity="0.09"/><ellipse cx="97.2" cy="106.6" rx="2.6" ry="1.5" fill="#3d3025" opacity="0.25"/><ellipse cx="175.6" cy="158.9" rx="2.3" ry="1.4" fill="#3d3025" opacity="0.11"/><ellipse cx="14.7" cy="164.8" rx="2.3" ry="1.4" fill="#3d3025" opacity="0.24"/><ellipse cx="211.1" cy="12.5" rx="2.0" ry="1.2" fill="#3d3025" opacity="0.12"/><ellipse cx="136.2" cy="62.9" rx="0.7" ry="0.4" fill="#3d3025" opacity="0.20"/><ellipse cx="155.2" cy="134.3" rx="2.2" ry="1.3" fill="#3d3025" opacity="0.18"/><ellipse cx="198.4" cy="90.5" rx="2.0" ry="1.2" fill="#3d3025" opacity="0.25"/><ellipse cx="33.2" cy="132.4" rx="2.8" ry="1.7" fill="#3d3025" opacity="0.26"/><ellipse cx="247.7" cy="236.1" rx="0.7" ry="0.4" fill="#3d3025" opacity="0.15"/><ellipse cx="206.8" cy="39.3" rx="1.7" ry="1.0" fill="#3d3025" opacity="0.14"/><ellipse cx="56.8" cy="25.8" rx="2.4" ry="1.5" fill="#3d3025" opacity="0.24"/><ellipse cx="93.9" cy="62.2" rx="0.6" ry="0.3" fill="#3d3025" opacity="0.12"/><ellipse cx="93.2" cy="105.4" rx="1.3" ry="0.8" fill="#3d3025" opacity="0.17"/><ellipse cx="233.6" cy="29.4" rx="2.4" ry="1.4" fill="#3d3025" opacity="0.09"/><ellipse cx="199.7" cy="191.4" rx="0.8" ry="0.5" fill="#3d3025" opacity="0.11"/><ellipse cx="14.6" cy="69.1" rx="2.8" ry="1.7" fill="#3d3025" opacity="0.20"/><ellipse cx="82.7" cy="45.2" rx="1.1" ry="0.7" fill="#3d3025" opacity="0.14"/><ellipse cx="27.2" cy="215.4" rx="1.9" ry="1.1" fill="#3d3025" opacity="0.22"/><ellipse cx="73.0" cy="143.5" rx="1.1" ry="0.7" fill="#3d3025" opacity="0.14"/><ellipse cx="80.8" cy="223.4" rx="1.3" ry="0.8" fill="#3d3025" opacity="0.13"/><ellipse cx="110.2" cy="253.2" rx="2.5" ry="1.5" fill="#3d3025" opacity="0.17"/><ellipse cx="51.2" cy="103.3" rx="1.7" ry="1.0" fill="#3d3025" opacity="0.13"/><ellipse cx="23.1" cy="5.3" rx="0.7" ry="0.4" fill="#3d3025" opacity="0.16"/><ellipse cx="234.3" cy="94.9" rx="2.6" ry="1.5" fill="#3d3025" opacity="0.13"/><ellipse cx="82.3" cy="190.2" rx="0.9" ry="0.5" fill="#3d3025" opacity="0.16"/><ellipse cx="177.6" cy="82.2" rx="2.2" ry="1.3" fill="#3d3025" opacity="0.16"/><ellipse cx="32.5" cy="163.4" rx="1.7" ry="1.0" fill="#3d3025" opacity="0.15"/><ellipse cx="89.3" cy="240.2" rx="2.7" ry="1.6" fill="#3d3025" opacity="0.21"/><ellipse cx="189.4" cy="68.5" rx="2.6" ry="1.6" fill="#3d3025" opacity="0.12"/><ellipse cx="214.5" cy="96.8" rx="0.8" ry="0.5" fill="#3d3025" opacity="0.19"/><ellipse cx="247.8" cy="195.6" rx="2.1" ry="1.3" fill="#3d3025" opacity="0.10"/><ellipse cx="227.9" cy="107.6" rx="2.8" ry="1.7" fill="#3d3025" opacity="0.21"/><ellipse cx="154.5" cy="35.6" rx="2.7" ry="1.6" fill="#3d3025" opacity="0.17"/><ellipse cx="178.3" cy="110.6" rx="1.1" ry="0.7" fill="#3d3025" opacity="0.20"/><ellipse cx="228.2" cy="102.9" rx="2.6" ry="1.5" fill="#3d3025" opacity="0.08"/><ellipse cx="168.9" cy="36.4" rx="1.4" ry="0.8" fill="#3d3025" opacity="0.21"/><ellipse cx="16.6" cy="126.0" rx="0.5" ry="0.3" fill="#3d3025" opacity="0.12"/><ellipse cx="53.9" cy="58.7" rx="1.9" ry="1.2" fill="#3d3025" opacity="0.19"/><ellipse cx="240.8" cy="5.6" rx="2.6" ry="1.5" fill="#3d3025" opacity="0.10"/><ellipse cx="175.0" cy="185.2" rx="2.1" ry="1.3" fill="#3d3025" opacity="0.23"/><ellipse cx="147.3" cy="213.7" rx="0.8" ry="0.5" fill="#3d3025" opacity="0.15"/><ellipse cx="66.0" cy="55.4" rx="1.1" ry="0.6" fill="#3d3025" opacity="0.24"/><ellipse cx="253.2" cy="95.4" rx="1.8" ry="1.1" fill="#3d3025" opacity="0.19"/><ellipse cx="245.2" cy="227.8" rx="1.5" ry="0.9" fill="#3d3025" opacity="0.12"/><ellipse cx="242.1" cy="219.9" rx="1.1" ry="0.6" fill="#3d3025" opacity="0.10"/><ellipse cx="183.9" cy="90.1" rx="1.6" ry="1.0" fill="#3d3025" opacity="0.14"/><ellipse cx="205.0" cy="74.9" rx="1.9" ry="1.1" fill="#3d3025" opacity="0.24"/><ellipse cx="131.0" cy="73.5" rx="1.7" ry="1.0" fill="#3d3025" opacity="0.13"/><ellipse cx="104.8" cy="65.0" rx="2.2" ry="1.3" fill="#3d3025" opacity="0.08"/><ellipse cx="137.1" cy="235.6" rx="1.1" ry="0.7" fill="#3d3025" opacity="0.09"/><ellipse cx="24.4" cy="134.2" rx="2.2" ry="1.3" fill="#3d3025" opacity="0.11"/><ellipse cx="119.8" cy="74.5" rx="2.6" ry="1.6" fill="#3d3025" opacity="0.09"/><ellipse cx="175.7" cy="132.6" rx="2.8" ry="1.7" fill="#3d3025" opacity="0.19"/><ellipse cx="199.3" cy="87.8" rx="2.7" ry="1.6" fill="#3d3025" opacity="0.10"/><ellipse cx="155.6" cy="134.7" rx="1.9" ry="1.2" fill="#3d3025" opacity="0.17"/><ellipse cx="27.5" cy="210.5" rx="0.7" ry="0.4" fill="#3d3025" opacity="0.17"/><ellipse cx="11.0" cy="197.8" rx="0.5" ry="0.3" fill="#3d3025" opacity="0.16"/><ellipse cx="180.3" cy="254.0" rx="1.9" ry="1.1" fill="#3d3025" opacity="0.15"/><ellipse cx="39.1" cy="72.9" rx="1.1" ry="0.7" fill="#3d3025" opacity="0.14"/><ellipse cx="238.1" cy="40.4" rx="2.4" ry="1.4" fill="#3d3025" opacity="0.23"/><ellipse cx="91.5" cy="146.7" rx="2.8" ry="1.7" fill="#3d3025" opacity="0.19"/><ellipse cx="210.3" cy="0.8" rx="2.5" ry="1.5" fill="#3d3025" opacity="0.18"/><ellipse cx="175.5" cy="32.5" rx="2.0" ry="1.2" fill="#3d3025" opacity="0.19"/><ellipse cx="184.0" cy="190.1" rx="1.3" ry="0.8" fill="#3d3025" opacity="0.22"/><ellipse cx="46.0" cy="184.6" rx="2.2" ry="1.3" fill="#3d3025" opacity="0.22"/><ellipse cx="243.9" cy="21.7" rx="0.8" ry="0.5" fill="#3d3025" opacity="0.17"/><ellipse cx="94.1" cy="136.7" rx="0.9" ry="0.5" fill="#3d3025" opacity="0.13"/><ellipse cx="153.7" cy="1.2" rx="1.2" ry="0.7" fill="#3d3025" opacity="0.25"/><ellipse cx="203.6" cy="20.4" rx="1.5" ry="0.9" fill="#3d3025" opacity="0.24"/><ellipse cx="75.7" cy="85.8" rx="2.0" ry="1.2" fill="#3d3025" opacity="0.20"/><ellipse cx="159.9" cy="243.8" rx="1.2" ry="0.7" fill="#3d3025" opacity="0.16"/><ellipse cx="28.0" cy="42.2" rx="0.8" ry="0.5" fill="#3d3025" opacity="0.12"/><ellipse cx="73.7" cy="97.8" rx="2.9" ry="1.7" fill="#3d3025" opacity="0.10"/><ellipse cx="124.6" cy="13.4" rx="1.6" ry="1.0" fill="#3d3025" opacity="0.13"/><ellipse cx="54.5" cy="155.2" rx="0.8" ry="0.5" fill="#3d3025" opacity="0.22"/><ellipse cx="64.1" cy="13.0" rx="2.0" ry="1.2" fill="#3d3025" opacity="0.22"/><ellipse cx="154.0" cy="12.2" rx="2.5" ry="1.5" fill="#3d3025" opacity="0.16"/><ellipse cx="169.9" cy="139.9" rx="1.7" ry="1.0" fill="#3d3025" opacity="0.21"/><ellipse cx="71.6" cy="79.8" rx="2.8" ry="1.7" fill="#3d3025" opacity="0.22"/><ellipse cx="143.1" cy="232.7" rx="1.9" ry="1.1" fill="#3d3025" opacity="0.22"/><ellipse cx="154.3" cy="253.8" rx="1.2" ry="0.7" fill="#3d3025" opacity="0.22"/><ellipse cx="134.9" cy="244.1" rx="2.4" ry="1.4" fill="#3d3025" opacity="0.23"/><ellipse cx="109.3" cy="73.7" rx="2.5" ry="1.5" fill="#3d3025" opacity="0.10"/><ellipse cx="42.8" cy="55.7" rx="1.0" ry="0.6" fill="#3d3025" opacity="0.15"/><ellipse cx="36.7" cy="112.5" rx="1.1" ry="0.6" fill="#3d3025" opacity="0.15"/><ellipse cx="103.4" cy="12.0" rx="1.0" ry="0.6" fill="#3d3025" opacity="0.14"/><ellipse cx="197.8" cy="248.1" rx="0.7" ry="0.4" fill="#3d3025" opacity="0.25"/><ellipse cx="220.9" cy="127.5" rx="2.7" ry="1.6" fill="#3d3025" opacity="0.12"/><ellipse cx="31.7" cy="189.0" rx="1.9" ry="1.1" fill="#3d3025" opacity="0.10"/><ellipse cx="79.3" cy="12.8" rx="2.7" ry="1.6" fill="#3d3025" opacity="0.23"/><ellipse cx="3.6" cy="209.5" rx="2.6" ry="1.6" fill="#3d3025" opacity="0.12"/><ellipse cx="39.4" cy="33.1" rx="2.1" ry="1.2" fill="#3d3025" opacity="0.20"/><ellipse cx="141.8" cy="43.7" rx="2.7" ry="1.6" fill="#3d3025" opacity="0.22"/><ellipse cx="2.8" cy="114.9" rx="0.7" ry="0.4" fill="#3d3025" opacity="0.16"/><ellipse cx="125.5" cy="35.9" rx="2.6" ry="1.5" fill="#3d3025" opacity="0.25"/><ellipse cx="84.7" cy="40.5" rx="1.9" ry="1.1" fill="#3d3025" opacity="0.11"/><ellipse cx="157.9" cy="195.8" rx="0.7" ry="0.4" fill="#3d3025" opacity="0.16"/><ellipse cx="22.4" cy="206.2" rx="1.3" ry="0.8" fill="#3d3025" opacity="0.09"/><ellipse cx="62.4" cy="228.3" rx="2.1" ry="1.3" fill="#3d3025" opacity="0.19"/><ellipse cx="135.4" cy="29.1" rx="1.9" ry="1.2" fill="#3d3025" opacity="0.17"/><ellipse cx="187.2" cy="28.2" rx="2.0" ry="1.2" fill="#3d3025" opacity="0.22"/><ellipse cx="254.7" cy="145.6" rx="1.1" ry="0.7" fill="#3d3025" opacity="0.16"/><ellipse cx="21.7" cy="126.8" rx="1.6" ry="1.0" fill="#3d3025" opacity="0.14"/><ellipse cx="202.3" cy="209.6" rx="0.5" ry="0.3" fill="#3d3025" opacity="0.09"/><ellipse cx="157.0" cy="42.6" rx="1.7" ry="1.0" fill="#3d3025" opacity="0.14"/><ellipse cx="32.6" cy="227.4" rx="0.8" ry="0.5" fill="#3d3025" opacity="0.22"/><ellipse cx="166.7" cy="167.2" rx="1.8" ry="1.1" fill="#3d3025" opacity="0.14"/><ellipse cx="32.4" cy="51.8" rx="2.7" ry="1.6" fill="#3d3025" opacity="0.15"/><ellipse cx="87.0" cy="20.4" rx="1.6" ry="1.0" fill="#3d3025" opacity="0.22"/><ellipse cx="225.4" cy="109.0" rx="1.4" ry="0.8" fill="#3d3025" opacity="0.23"/><ellipse cx="121.4" cy="40.2" rx="2.7" ry="1.6" fill="#3d3025" opacity="0.11"/><ellipse cx="149.0" cy="28.7" rx="2.7" ry="1.6" fill="#3d3025" opacity="0.11"/><ellipse cx="105.1" cy="253.8" rx="2.6" ry="1.6" fill="#3d3025" opacity="0.14"/><ellipse cx="182.6" cy="43.1" rx="0.8" ry="0.5" fill="#3d3025" opacity="0.16"/><ellipse cx="9.6" cy="179.8" rx="2.3" ry="1.4" fill="#3d3025" opacity="0.08"/><ellipse cx="75.8" cy="32.9" rx="1.8" ry="1.1" fill="#3d3025" opacity="0.22"/><ellipse cx="207.3" cy="218.7" rx="2.9" ry="1.7" fill="#3d3025" opacity="0.08"/><ellipse cx="53.7" cy="61.9" rx="2.4" ry="1.4" fill="#3d3025" opacity="0.19"/><ellipse cx="215.7" cy="179.4" rx="0.8" ry="0.5" fill="#3d3025" opacity="0.10"/><ellipse cx="144.5" cy="95.8" rx="0.6" ry="0.4" fill="#3d3025" opacity="0.17"/><ellipse cx="18.1" cy="61.9" rx="2.2" ry="1.3" fill="#3d3025" opacity="0.08"/><ellipse cx="36.8" cy="184.4" rx="2.0" ry="1.2" fill="#3d3025" opacity="0.08"/><ellipse cx="120.1" cy="23.5" rx="1.5" ry="0.9" fill="#3d3025" opacity="0.25"/><ellipse cx="231.3" cy="84.4" rx="2.1" ry="1.3" fill="#3d3025" opacity="0.24"/><ellipse cx="86.0" cy="41.5" rx="0.6" ry="0.4" fill="#3d3025" opacity="0.25"/><ellipse cx="138.0" cy="113.3" rx="1.5" ry="0.9" fill="#3d3025" opacity="0.09"/><ellipse cx="163.6" cy="39.8" rx="2.7" ry="1.6" fill="#3d3025" opacity="0.17"/><ellipse cx="28.3" cy="164.7" rx="1.5" ry="0.9" fill="#3d3025" opacity="0.09"/><ellipse cx="108.1" cy="223.1" rx="2.4" ry="1.5" fill="#3d3025" opacity="0.12"/><ellipse cx="187.7" cy="210.2" rx="2.4" ry="1.4" fill="#3d3025" opacity="0.18"/><ellipse cx="71.2" cy="83.6" rx="1.7" ry="1.0" fill="#3d3025" opacity="0.24"/><ellipse cx="84.2" cy="242.1" rx="1.7" ry="1.0" fill="#3d3025" opacity="0.23"/><ellipse cx="225.3" cy="175.3" rx="2.8" ry="1.7" fill="#3d3025" opacity="0.11"/><ellipse cx="112.8" cy="168.1" rx="2.7" ry="1.6" fill="#3d3025" opacity="0.22"/><ellipse cx="148.1" cy="0.9" rx="0.5" ry="0.3" fill="#3d3025" opacity="0.11"/><ellipse cx="27.8" cy="169.3" rx="0.6" ry="0.3" fill="#3d3025" opacity="0.17"/><ellipse cx="15.1" cy="202.0" rx="1.5" ry="0.9" fill="#3d3025" opacity="0.19"/><ellipse cx="208.0" cy="243.2" rx="0.9" ry="0.5" fill="#3d3025" opacity="0.20"/><ellipse cx="15.9" cy="93.5" rx="2.8" ry="1.7" fill="#3d3025" opacity="0.11"/><ellipse cx="120.2" cy="210.1" rx="1.6" ry="0.9" fill="#3d3025" opacity="0.18"/><ellipse cx="43.1" cy="14.4" rx="1.6" ry="0.9" fill="#3d3025" opacity="0.11"/><ellipse cx="128.6" cy="183.2" rx="1.7" ry="1.0" fill="#3d3025" opacity="0.19"/><ellipse cx="164.3" cy="46.1" rx="2.8" ry="1.7" fill="#3d3025" opacity="0.17"/><ellipse cx="246.7" cy="223.6" rx="0.9" ry="0.5" fill="#3d3025" opacity="0.16"/><ellipse cx="87.2" cy="218.9" rx="1.0" ry="0.6" fill="#3d3025" opacity="0.12"/><ellipse cx="186.1" cy="202.6" rx="0.9" ry="0.5" fill="#3d3025" opacity="0.11"/><ellipse cx="175.4" cy="158.7" rx="1.7" ry="1.0" fill="#3d3025" opacity="0.23"/><ellipse cx="188.9" cy="128.1" rx="0.6" ry="0.4" fill="#3d3025" opacity="0.21"/><ellipse cx="177.4" cy="221.3" rx="1.7" ry="1.0" fill="#3d3025" opacity="0.19"/><ellipse cx="84.1" cy="167.4" rx="0.8" ry="0.5" fill="#3d3025" opacity="0.24"/><ellipse cx="19.2" cy="18.7" rx="1.2" ry="0.7" fill="#3d3025" opacity="0.17"/><ellipse cx="152.5" cy="109.4" rx="0.8" ry="0.5" fill="#3d3025" opacity="0.14"/><ellipse cx="100.3" cy="226.3" rx="0.9" ry="0.6" fill="#3d3025" opacity="0.24"/><ellipse cx="214.6" cy="59.0" rx="2.2" ry="1.3" fill="#3d3025" opacity="0.12"/><ellipse cx="70.5" cy="244.6" rx="2.7" ry="1.6" fill="#3d3025" opacity="0.16"/><ellipse cx="15.6" cy="60.2" rx="0.6" ry="0.3" fill="#3d3025" opacity="0.25"/><ellipse cx="182.4" cy="166.3" rx="2.1" ry="1.3" fill="#3d3025" opacity="0.14"/><ellipse cx="137.7" cy="181.8" rx="1.1" ry="0.6" fill="#3d3025" opacity="0.11"/><ellipse cx="99.9" cy="134.2" rx="1.4" ry="0.8" fill="#3d3025" opacity="0.21"/><ellipse cx="112.6" cy="44.6" rx="1.7" ry="1.0" fill="#3d3025" opacity="0.14"/><ellipse cx="26.6" cy="164.5" rx="2.2" ry="1.3" fill="#3d3025" opacity="0.20"/><ellipse cx="133.9" cy="91.5" rx="1.5" ry="0.9" fill="#3d3025" opacity="0.14"/><ellipse cx="58.4" cy="176.6" rx="2.2" ry="1.3" fill="#3d3025" opacity="0.26"/><ellipse cx="226.0" cy="250.1" rx="0.9" ry="0.5" fill="#3d3025" opacity="0.19"/><ellipse cx="64.0" cy="231.8" rx="2.4" ry="1.4" fill="#3d3025" opacity="0.09"/><ellipse cx="196.0" cy="83.2" rx="0.6" ry="0.4" fill="#3d3025" opacity="0.15"/><ellipse cx="93.3" cy="212.0" rx="1.6" ry="1.0" fill="#3d3025" opacity="0.15"/><ellipse cx="114.6" cy="171.3" rx="2.6" ry="1.6" fill="#3d3025" opacity="0.17"/><ellipse cx="34.0" cy="218.0" rx="2.1" ry="1.2" fill="#3d3025" opacity="0.20"/><ellipse cx="44.7" cy="119.0" rx="1.8" ry="1.1" fill="#3d3025" opacity="0.14"/><ellipse cx="52.1" cy="152.0" rx="1.3" ry="0.8" fill="#3d3025" opacity="0.13"/><ellipse cx="41.6" cy="97.9" rx="1.5" ry="0.9" fill="#3d3025" opacity="0.24"/><ellipse cx="24.2" cy="20.3" rx="0.6" ry="0.4" fill="#3d3025" opacity="0.22"/><ellipse cx="169.4" cy="36.5" rx="1.4" ry="0.8" fill="#3d3025" opacity="0.22"/><ellipse cx="10.5" cy="187.5" rx="2.2" ry="1.3" fill="#3d3025" opacity="0.12"/><ellipse cx="22.1" cy="43.2" rx="0.6" ry="0.4" fill="#3d3025" opacity="0.22"/><ellipse cx="230.6" cy="47.2" rx="0.9" ry="0.5" fill="#3d3025" opacity="0.11"/><ellipse cx="51.5" cy="12.4" rx="2.7" ry="1.6" fill="#3d3025" opacity="0.14"/><ellipse cx="32.5" cy="228.4" rx="1.0" ry="0.6" fill="#3d3025" opacity="0.17"/><ellipse cx="95.9" cy="207.4" rx="2.7" ry="1.6" fill="#3d3025" opacity="0.24"/><ellipse cx="205.2" cy="146.2" rx="0.9" ry="0.5" fill="#3d3025" opacity="0.15"/><ellipse cx="228.6" cy="2.7" rx="2.1" ry="1.3" fill="#3d3025" opacity="0.23"/><ellipse cx="186.5" cy="112.0" rx="0.9" ry="0.6" fill="#3d3025" opacity="0.16"/><ellipse cx="86.6" cy="162.3" rx="2.7" ry="1.6" fill="#3d3025" opacity="0.22"/><ellipse cx="152.4" cy="68.4" rx="2.5" ry="1.5" fill="#3d3025" opacity="0.14"/><ellipse cx="6.8" cy="206.5" rx="0.7" ry="0.4" fill="#3d3025" opacity="0.23"/><ellipse cx="48.9" cy="67.0" rx="1.7" ry="1.0" fill="#3d3025" opacity="0.19"/><ellipse cx="130.4" cy="82.5" rx="2.7" ry="1.6" fill="#3d3025" opacity="0.16"/><ellipse cx="176.8" cy="187.8" rx="0.8" ry="0.5" fill="#3d3025" opacity="0.09"/><ellipse cx="36.1" cy="250.5" rx="2.9" ry="1.7" fill="#3d3025" opacity="0.18"/><ellipse cx="0.4" cy="153.1" rx="2.4" ry="1.5" fill="#3d3025" opacity="0.09"/><ellipse cx="179.6" cy="186.4" rx="1.9" ry="1.1" fill="#3d3025" opacity="0.11"/><ellipse cx="43.4" cy="174.1" rx="2.1" ry="1.2" fill="#3d3025" opacity="0.17"/><ellipse cx="23.0" cy="164.4" rx="1.0" ry="0.6" fill="#3d3025" opacity="0.20"/><ellipse cx="218.1" cy="213.4" rx="1.4" ry="0.8" fill="#3d3025" opacity="0.24"/><ellipse cx="18.8" cy="175.2" rx="2.4" ry="1.4" fill="#3d3025" opacity="0.12"/><ellipse cx="217.2" cy="223.7" rx="1.3" ry="0.8" fill="#3d3025" opacity="0.22"/><ellipse cx="26.3" cy="77.0" rx="0.8" ry="0.5" fill="#3d3025" opacity="0.10"/><ellipse cx="179.1" cy="82.1" rx="1.5" ry="0.9" fill="#3d3025" opacity="0.16"/><ellipse cx="48.7" cy="209.6" rx="1.1" ry="0.6" fill="#3d3025" opacity="0.11"/><ellipse cx="87.7" cy="244.6" rx="2.8" ry="1.7" fill="#3d3025" opacity="0.11"/><ellipse cx="216.9" cy="168.8" rx="0.8" ry="0.5" fill="#3d3025" opacity="0.25"/><ellipse cx="213.1" cy="48.8" rx="2.5" ry="1.5" fill="#3d3025" opacity="0.17"/><ellipse cx="22.4" cy="93.3" rx="0.6" ry="0.4" fill="#3d3025" opacity="0.24"/><ellipse cx="32.4" cy="64.1" rx="2.1" ry="1.2" fill="#3d3025" opacity="0.23"/><ellipse cx="125.9" cy="111.1" rx="1.5" ry="0.9" fill="#3d3025" opacity="0.10"/><ellipse cx="237.8" cy="42.4" rx="2.2" ry="1.3" fill="#3d3025" opacity="0.21"/><ellipse cx="85.3" cy="249.6" rx="1.1" ry="0.6" fill="#3d3025" opacity="0.10"/><ellipse cx="153.3" cy="148.5" rx="1.8" ry="1.1" fill="#3d3025" opacity="0.23"/><ellipse cx="196.8" cy="42.7" rx="1.1" ry="0.7" fill="#3d3025" opacity="0.10"/><ellipse cx="31.2" cy="94.8" rx="2.5" ry="1.5" fill="#3d3025" opacity="0.24"/><ellipse cx="22.9" cy="136.8" rx="1.4" ry="0.8" fill="#3d3025" opacity="0.20"/><ellipse cx="36.5" cy="19.5" rx="1.1" ry="0.7" fill="#3d3025" opacity="0.18"/><ellipse cx="9.3" cy="9.6" rx="2.5" ry="1.5" fill="#3d3025" opacity="0.14"/><ellipse cx="15.5" cy="37.4" rx="1.3" ry="0.8" fill="#3d3025" opacity="0.16"/><ellipse cx="45.1" cy="248.4" rx="0.6" ry="0.4" fill="#3d3025" opacity="0.24"/><ellipse cx="48.2" cy="254.0" rx="1.7" ry="1.0" fill="#3d3025" opacity="0.08"/><ellipse cx="87.3" cy="173.0" rx="2.1" ry="1.3" fill="#3d3025" opacity="0.09"/><ellipse cx="249.2" cy="220.7" rx="0.9" ry="0.6" fill="#3d3025" opacity="0.14"/><ellipse cx="33.8" cy="17.5" rx="1.9" ry="1.1" fill="#3d3025" opacity="0.23"/><ellipse cx="71.3" cy="132.3" rx="2.2" ry="1.3" fill="#3d3025" opacity="0.12"/><ellipse cx="123.1" cy="249.4" rx="0.8" ry="0.5" fill="#3d3025" opacity="0.09"/><ellipse cx="187.1" cy="186.5" rx="2.4" ry="1.4" fill="#3d3025" opacity="0.23"/><ellipse cx="71.4" cy="72.0" rx="1.3" ry="0.8" fill="#3d3025" opacity="0.17"/><ellipse cx="32.5" cy="149.7" rx="1.5" ry="0.9" fill="#3d3025" opacity="0.15"/><ellipse cx="17.0" cy="230.6" rx="0.8" ry="0.5" fill="#3d3025" opacity="0.22"/><ellipse cx="232.2" cy="155.9" rx="1.8" ry="1.1" fill="#3d3025" opacity="0.17"/><ellipse cx="200.6" cy="139.3" rx="1.9" ry="1.1" fill="#3d3025" opacity="0.14"/><ellipse cx="175.1" cy="176.9" rx="0.5" ry="0.3" fill="#3d3025" opacity="0.15"/><ellipse cx="149.8" cy="79.5" rx="1.8" ry="1.1" fill="#3d3025" opacity="0.22"/><ellipse cx="215.7" cy="213.1" rx="1.5" ry="0.9" fill="#3d3025" opacity="0.21"/><ellipse cx="184.0" cy="22.1" rx="2.5" ry="1.5" fill="#3d3025" opacity="0.17"/><ellipse cx="50.2" cy="179.9" rx="1.0" ry="0.6" fill="#3d3025" opacity="0.22"/><ellipse cx="118.4" cy="194.4" rx="2.8" ry="1.7" fill="#3d3025" opacity="0.23"/><ellipse cx="181.2" cy="1.8" rx="1.7" ry="1.0" fill="#3d3025" opacity="0.22"/><ellipse cx="32.8" cy="62.3" rx="1.7" ry="1.0" fill="#3d3025" opacity="0.10"/><ellipse cx="69.7" cy="171.7" rx="1.8" ry="1.1" fill="#3d3025" opacity="0.17"/><ellipse cx="32.0" cy="80.8" rx="0.6" ry="0.3" fill="#3d3025" opacity="0.15"/><ellipse cx="144.4" cy="212.7" rx="1.8" ry="1.1" fill="#3d3025" opacity="0.15"/><ellipse cx="22.2" cy="68.8" rx="1.6" ry="1.0" fill="#3d3025" opacity="0.17"/><ellipse cx="241.4" cy="164.9" rx="0.9" ry="0.5" fill="#3d3025" opacity="0.24"/><ellipse cx="16.0" cy="95.4" rx="0.9" ry="0.6" fill="#3d3025" opacity="0.25"/><ellipse cx="109.2" cy="231.9" rx="1.8" ry="1.1" fill="#3d3025" opacity="0.25"/><ellipse cx="196.0" cy="38.2" rx="1.9" ry="1.1" fill="#3d3025" opacity="0.21"/><ellipse cx="185.3" cy="123.2" rx="0.7" ry="0.4" fill="#3d3025" opacity="0.11"/><ellipse cx="228.1" cy="118.1" rx="0.8" ry="0.5" fill="#3d3025" opacity="0.10"/><ellipse cx="84.1" cy="140.7" rx="1.3" ry="0.8" fill="#3d3025" opacity="0.23"/><ellipse cx="125.7" cy="105.9" rx="1.1" ry="0.7" fill="#3d3025" opacity="0.21"/><ellipse cx="173.9" cy="169.3" rx="2.9" ry="1.7" fill="#3d3025" opacity="0.20"/><ellipse cx="106.3" cy="16.3" rx="1.6" ry="1.0" fill="#3d3025" opacity="0.11"/><ellipse cx="97.4" cy="155.5" rx="0.7" ry="0.4" fill="#3d3025" opacity="0.19"/><ellipse cx="207.6" cy="242.9" rx="0.8" ry="0.5" fill="#3d3025" opacity="0.21"/><ellipse cx="123.9" cy="25.6" rx="2.3" ry="1.4" fill="#3d3025" opacity="0.10"/><ellipse cx="176.7" cy="108.5" rx="0.8" ry="0.5" fill="#3d3025" opacity="0.15"/><ellipse cx="213.9" cy="68.3" rx="2.5" ry="1.5" fill="#3d3025" opacity="0.17"/><ellipse cx="142.0" cy="207.3" rx="1.6" ry="0.9" fill="#3d3025" opacity="0.16"/><ellipse cx="124.0" cy="245.4" rx="2.5" ry="1.5" fill="#3d3025" opacity="0.09"/><ellipse cx="21.9" cy="92.2" rx="0.6" ry="0.4" fill="#3d3025" opacity="0.09"/><ellipse cx="38.7" cy="222.1" rx="1.2" ry="0.7" fill="#3d3025" opacity="0.21"/><ellipse cx="229.4" cy="8.5" rx="2.3" ry="1.4" fill="#3d3025" opacity="0.16"/><ellipse cx="195.4" cy="117.5" rx="0.7" ry="0.4" fill="#3d3025" opacity="0.09"/><ellipse cx="88.4" cy="20.7" rx="2.4" ry="1.4" fill="#3d3025" opacity="0.10"/><ellipse cx="12.9" cy="183.2" rx="0.6" ry="0.4" fill="#3d3025" opacity="0.18"/><ellipse cx="106.5" cy="115.0" rx="1.3" ry="0.8" fill="#3d3025" opacity="0.18"/><ellipse cx="51.6" cy="177.7" rx="0.9" ry="0.5" fill="#3d3025" opacity="0.10"/><ellipse cx="167.3" cy="254.0" rx="2.7" ry="1.6" fill="#3d3025" opacity="0.13"/><ellipse cx="150.1" cy="229.1" rx="1.4" ry="0.9" fill="#3d3025" opacity="0.26"/><ellipse cx="42.6" cy="126.8" rx="2.9" ry="1.7" fill="#3d3025" opacity="0.09"/><ellipse cx="138.1" cy="113.2" rx="0.7" ry="0.4" fill="#3d3025" opacity="0.23"/><ellipse cx="177.7" cy="131.7" rx="2.2" ry="1.3" fill="#3d3025" opacity="0.16"/><ellipse cx="52.1" cy="20.6" rx="2.3" ry="1.4" fill="#3d3025" opacity="0.20"/><ellipse cx="186.9" cy="6.8" rx="1.4" ry="0.9" fill="#3d3025" opacity="0.25"/><ellipse cx="112.7" cy="250.5" rx="2.5" ry="1.5" fill="#3d3025" opacity="0.26"/><ellipse cx="183.0" cy="228.5" rx="2.0" ry="1.2" fill="#3d3025" opacity="0.26"/><ellipse cx="204.8" cy="89.8" rx="1.4" ry="0.9" fill="#3d3025" opacity="0.18"/><ellipse cx="73.0" cy="33.6" rx="2.2" ry="1.3" fill="#3d3025" opacity="0.17"/><ellipse cx="141.7" cy="227.2" rx="2.9" ry="1.7" fill="#3d3025" opacity="0.16"/><ellipse cx="151.0" cy="2.4" rx="2.8" ry="1.7" fill="#3d3025" opacity="0.25"/><ellipse cx="202.4" cy="255.9" rx="2.3" ry="1.4" fill="#3d3025" opacity="0.09"/><ellipse cx="170.7" cy="240.7" rx="1.1" ry="0.6" fill="#3d3025" opacity="0.13"/><ellipse cx="147.4" cy="224.2" rx="0.8" ry="0.5" fill="#3d3025" opacity="0.23"/><ellipse cx="225.6" cy="50.6" rx="1.4" ry="0.8" fill="#3d3025" opacity="0.18"/><ellipse cx="43.6" cy="89.6" rx="1.0" ry="0.6" fill="#3d3025" opacity="0.13"/><ellipse cx="110.0" cy="113.0" rx="2.5" ry="1.5" fill="#3d3025" opacity="0.19"/><ellipse cx="80.5" cy="149.8" rx="1.8" ry="1.1" fill="#3d3025" opacity="0.22"/><ellipse cx="231.0" cy="13.7" rx="1.4" ry="0.8" fill="#3d3025" opacity="0.15"/><ellipse cx="147.0" cy="144.7" rx="2.0" ry="1.2" fill="#3d3025" opacity="0.17"/><ellipse cx="233.3" cy="74.5" rx="2.0" ry="1.2" fill="#3d3025" opacity="0.25"/><ellipse cx="191.8" cy="103.3" rx="2.3" ry="1.4" fill="#3d3025" opacity="0.09"/><ellipse cx="199.6" cy="63.3" rx="2.9" ry="1.7" fill="#3d3025" opacity="0.21"/><ellipse cx="87.7" cy="118.1" rx="2.2" ry="1.3" fill="#3d3025" opacity="0.16"/><ellipse cx="75.1" cy="160.7" rx="1.5" ry="0.9" fill="#3d3025" opacity="0.09"/><ellipse cx="24.4" cy="71.4" rx="2.7" ry="1.6" fill="#3d3025" opacity="0.25"/><ellipse cx="132.1" cy="86.5" rx="1.2" ry="0.7" fill="#3d3025" opacity="0.25"/><ellipse cx="148.9" cy="82.2" rx="2.6" ry="1.6" fill="#3d3025" opacity="0.17"/><ellipse cx="170.4" cy="226.2" rx="1.6" ry="0.9" fill="#3d3025" opacity="0.14"/><ellipse cx="221.7" cy="136.1" rx="2.1" ry="1.3" fill="#3d3025" opacity="0.23"/><ellipse cx="13.5" cy="149.5" rx="2.9" ry="1.7" fill="#3d3025" opacity="0.19"/><ellipse cx="58.0" cy="180.5" rx="1.9" ry="1.1" fill="#3d3025" opacity="0.09"/><ellipse cx="22.0" cy="152.8" rx="2.2" ry="1.3" fill="#3d3025" opacity="0.13"/><ellipse cx="239.5" cy="170.6" rx="1.7" ry="1.0" fill="#3d3025" opacity="0.11"/><ellipse cx="85.0" cy="193.7" rx="2.6" ry="1.6" fill="#3d3025" opacity="0.09"/><ellipse cx="27.0" cy="67.9" rx="2.8" ry="1.7" fill="#3d3025" opacity="0.26"/><ellipse cx="165.4" cy="57.6" rx="2.3" ry="1.4" fill="#3d3025" opacity="0.18"/><path d="M0 0q10 64 0 128t0 128" fill="none" stroke="#3d3025" stroke-width="3" opacity=".6"/><path d="M24 0q10 64 0 128t0 128" fill="none" stroke="#3d3025" stroke-width="1" opacity=".6"/><path d="M48 0q10 64 0 128t0 128" fill="none" stroke="#3d3025" stroke-width="1" opacity=".6"/><path d="M72 0q10 64 0 128t0 128" fill="none" stroke="#3d3025" stroke-width="3" opacity=".6"/><path d="M96 0q10 64 0 128t0 128" fill="none" stroke="#3d3025" stroke-width="1" opacity=".6"/><path d="M120 0q10 64 0 128t0 128" fill="none" stroke="#3d3025" stroke-width="1" opacity=".6"/><path d="M144 0q10 64 0 128t0 128" fill="none" stroke="#3d3025" stroke-width="3" opacity=".6"/><path d="M168 0q10 64 0 128t0 128" fill="none" stroke="#3d3025" stroke-width="1" opacity=".6"/><path d="M192 0q10 64 0 128t0 128" fill="none" stroke="#3d3025" stroke-width="1" opacity=".6"/><path d="M216 0q10 64 0 128t0 128" fill="none" stroke="#3d3025" stroke-width="3" opacity=".6"/><path d="M240 0q10 64 0 128t0 128" fill="none" stroke="#3d3025" stroke-width="1" opacity=".6"/><path d="M264 0q10 64 0 128t0 128" fill="none" stroke="#3d3025" stroke-width="1" opacity=".6"/></svg>